HIERARCHY
ROOT Hips
{
	OFFSET -0.001795 -0.223333 0.028219
	CHANNELS 6 Xposition Yposition Zposition Zrotation Yrotation Xrotation 
	JOINT LeftUpLeg
	{
		OFFSET 0.069520 -0.091406 -0.006815
		CHANNELS 3 Zrotation Yrotation Xrotation
		JOINT LeftLeg
		{
			OFFSET 0.034277 -0.375199 -0.004496
			CHANNELS 3 Zrotation Yrotation Xrotation
			JOINT LeftFoot
			{
				OFFSET -0.013596 -0.397961 -0.043693
				CHANNELS 3 Zrotation Yrotation Xrotation
				JOINT LeftToe
				{
					OFFSET 0.026358 -0.055791 0.119288
					CHANNELS 3 Zrotation Yrotation Xrotation
					End Site
					{
						OFFSET 0.000000 0.000000 0.000000
					}
				}
			}
		}
	}
	JOINT RightUpLeg
	{
		OFFSET -0.067670 -0.090522 -0.004320
		CHANNELS 3 Zrotation Yrotation Xrotation
		JOINT RightLeg
		{
			OFFSET -0.038290 -0.382569 -0.008850
			CHANNELS 3 Zrotation Yrotation Xrotation
			JOINT RightFoot
			{
				OFFSET 0.015774 -0.398415 -0.042312
				CHANNELS 3 Zrotation Yrotation Xrotation
				JOINT RightToe
				{
					OFFSET -0.025372 -0.048144 0.123348
					CHANNELS 3 Zrotation Yrotation Xrotation
					End Site
					{
						OFFSET 0.000000 0.000000 0.000000
					}
				}
			}
		}
	}
	JOINT Spine
	{
		OFFSET -0.002533 0.108963 -0.026696
		CHANNELS 3 Zrotation Yrotation Xrotation
		JOINT Spine1
		{
			OFFSET 0.005487 0.135180 0.001092
			CHANNELS 3 Zrotation Yrotation Xrotation
			JOINT Spine2
			{
				OFFSET 0.001457 0.052922 0.025425
				CHANNELS 3 Zrotation Yrotation Xrotation
				JOINT Neck
				{
					OFFSET -0.002778 0.213870 -0.042857
					CHANNELS 3 Zrotation Yrotation Xrotation
					JOINT Head
					{
						OFFSET 0.005152 0.064970 0.051349
						CHANNELS 3 Zrotation Yrotation Xrotation
						End Site
						{
							OFFSET 0.000000 0.000000 0.000000
						}
					}
				}
				JOINT LeftShoulder
				{
					OFFSET 0.078845 0.121749 -0.034090
					CHANNELS 3 Zrotation Yrotation Xrotation
					JOINT LeftArm
					{
						OFFSET 0.090977 0.030469 -0.008868
						CHANNELS 3 Zrotation Yrotation Xrotation
						JOINT LeftForeArm
						{
							OFFSET 0.259612 -0.012772 -0.027456
							CHANNELS 3 Zrotation Yrotation Xrotation
							JOINT LeftHand
							{
								OFFSET 0.249234 0.008986 -0.001171
								CHANNELS 3 Zrotation Yrotation Xrotation
								End Site
								{
									OFFSET 0.000000 0.000000 0.000000
								}
							}
						}
					}
				}
				JOINT RightShoulder
				{
					OFFSET -0.081759 0.118833 -0.038615
					CHANNELS 3 Zrotation Yrotation Xrotation
					JOINT RightArm
					{
						OFFSET -0.096012 0.032551 -0.009143
						CHANNELS 3 Zrotation Yrotation Xrotation
						JOINT RightForeArm
						{
							OFFSET -0.253742 -0.013329 -0.021401
							CHANNELS 3 Zrotation Yrotation Xrotation
							JOINT RightHand
							{
								OFFSET -0.255298 0.007772 -0.005559
								CHANNELS 3 Zrotation Yrotation Xrotation
								End Site
								{
									OFFSET 0.000000 0.000000 0.000000
								}
							}
						}
					}
				}
			}
		}
	}
}
MOTION
Frames: 17
Frame Time: 0.050000
-0.912494 0.971282 0.893259 1.217278 42.271712 0.844717 1.351629 -1.973574 -16.338265 -15.632315 -3.506679 44.229239 6.456678 17.605573 14.048806 0.000000 0.000000 0.000000 3.789207 0.633071 -4.295144 -4.174468 -1.189198 23.356490 5.524018 2.347142 42.505583 0.000000 0.000000 0.000000 1.623127 -1.125408 12.373373 -1.570661 0.902014 -32.618490 -3.561692 8.553459 29.758230 13.821882 0.416978 -31.321848 0.000000 0.000000 0.000000 -14.509821 -7.471687 -6.104914 -52.448930 -7.004839 -4.123066 -8.170366 -37.681638 -0.005281 0.000000 0.000000 0.000000 32.155158 -12.520576 3.599327 50.528681 20.288817 -2.513491 5.108029 36.170330 6.152428 0.000000 0.000000 0.000000 
-0.970087 0.963404 0.858459 0.560403 41.674405 -0.156118 1.696054 -1.616119 -14.503202 -20.610077 -2.177499 47.961844 3.637300 15.196624 20.171374 0.000000 0.000000 0.000000 6.069292 0.970601 -5.971570 -5.156849 -0.657863 22.745618 4.670302 4.820477 31.079658 0.000000 0.000000 0.000000 2.698675 -1.455147 13.549610 -0.689838 0.961979 -31.298030 -4.641180 8.869360 28.060482 14.074124 0.085372 -30.696776 0.000000 0.000000 0.000000 -14.411744 -7.299120 -5.925374 -51.717350 -6.367105 -4.183204 -8.790842 -38.342517 0.222011 0.000000 0.000000 0.000000 31.776628 -12.248426 3.224159 50.266416 19.368391 -2.426840 5.851074 36.013474 6.149961 0.000000 0.000000 0.000000 
-1.026370 0.956923 0.823595 -0.300624 41.595160 -0.629808 1.400820 -1.276470 -12.354436 -23.164938 -1.379069 49.647621 0.977602 11.724743 20.693836 0.000000 0.000000 0.000000 7.103183 1.254051 -8.068200 -4.388170 -1.009292 23.387777 4.926959 8.429633 15.979173 0.000000 0.000000 0.000000 3.939520 -1.714489 13.902154 -1.473738 1.157279 -30.314303 -4.071491 7.270282 27.644613 13.516044 0.306957 -31.722009 0.000000 0.000000 0.000000 -15.551606 -6.962243 -6.040025 -50.697270 -5.499724 -4.324775 -7.482417 -38.966835 0.141629 0.000000 0.000000 0.000000 31.687528 -11.634928 2.911428 50.483569 18.614448 -2.505020 2.635392 37.366683 5.391667 0.000000 0.000000 0.000000 
-1.081685 0.952236 0.788604 -0.636217 42.817518 -1.601153 -1.219146 -0.703759 -8.000457 -19.448762 -2.609700 46.215330 0.595910 8.640992 12.776570 0.000000 0.000000 0.000000 7.725594 1.402992 -9.162766 -4.685923 -1.132054 24.051687 6.346898 13.124807 5.273917 0.000000 0.000000 0.000000 4.465599 -2.075106 15.251628 -1.290085 1.085483 -31.076928 -3.925908 6.511407 28.588685 13.206525 0.751843 -33.675797 0.000000 0.000000 0.000000 -16.496632 -8.434979 -5.743207 -49.650391 -5.220751 -4.109855 -6.829942 -39.720026 0.002347 0.000000 0.000000 0.000000 33.481266 -12.016528 2.891222 47.819236 18.524422 -3.212134 2.579015 38.941451 5.532315 0.000000 0.000000 0.000000 
-1.136341 0.950435 0.753894 -0.284923 44.518763 -2.278616 -3.284029 -0.452864 -5.909412 -13.718282 -3.719527 39.933647 0.660334 6.144784 7.089501 0.000000 0.000000 0.000000 7.215969 1.507852 -11.646905 -4.268447 -2.010850 26.611414 7.130391 15.674264 0.436959 0.000000 0.000000 0.000000 3.972787 -2.081070 15.632673 -0.915487 1.245017 -29.326855 -5.301936 4.600437 27.445010 14.732982 -0.522804 -32.071477 0.000000 0.000000 0.000000 -17.137373 -7.069245 -6.479541 -49.105729 -6.469488 -3.347032 -6.167510 -37.953745 -0.067459 0.000000 0.000000 0.000000 33.608577 -11.711646 2.918565 48.910041 18.807914 -2.927523 1.465325 36.991895 4.765046 0.000000 0.000000 0.000000 
-1.191293 0.949532 0.719391 -0.326053 46.686994 -2.827418 -4.107263 -0.568109 -6.706565 -8.742236 -4.101487 33.847852 -0.410401 3.910670 5.945266 0.000000 0.000000 0.000000 5.766135 1.329879 -12.771450 -4.452949 -3.105932 30.120617 8.529017 21.525761 -7.523685 0.000000 0.000000 0.000000 3.442160 -2.479180 17.637393 -1.034755 1.114831 -30.656116 -4.396339 5.350344 28.075275 14.599042 0.300208 -34.440362 0.000000 0.000000 0.000000 -18.135388 -10.219701 -6.137330 -47.105136 -6.349459 -2.674405 -5.300466 -36.546389 -0.372788 0.000000 0.000000 0.000000 32.903536 -12.630283 2.754478 50.179841 18.353520 -2.967340 1.621234 34.988445 4.528517 0.000000 0.000000 0.000000 
-1.245614 0.949427 0.684826 0.304667 46.604120 -2.744017 -3.818366 -0.928165 -9.073299 -9.066864 -3.299490 30.800147 1.255128 6.650460 5.932215 0.000000 0.000000 0.000000 4.395714 1.120887 -13.767065 -9.012318 -4.004719 40.808194 7.910129 28.247335 -17.461417 0.000000 0.000000 0.000000 2.877021 -2.417175 17.870240 -2.005929 1.258417 -30.465977 -2.689357 5.657256 28.666101 12.606027 1.516643 -35.094511 0.000000 0.000000 0.000000 -19.008552 -10.391968 -6.673621 -47.470654 -6.495805 -2.487052 -4.617994 -36.365252 -0.590396 0.000000 0.000000 0.000000 31.524472 -11.221280 3.874435 50.911705 18.913247 -2.621822 2.657327 34.752116 4.740409 0.000000 0.000000 0.000000 
-1.299117 0.948751 0.650203 2.054749 47.182675 -2.204980 -4.461653 -1.522782 -12.021451 -9.232267 -2.965066 29.072208 1.773430 9.089196 8.215191 0.000000 0.000000 0.000000 2.574310 0.784845 -10.648483 -13.113332 -4.361791 47.927780 5.796544 31.326355 -24.709181 0.000000 0.000000 0.000000 1.562930 -2.429255 18.898180 -3.137914 1.265207 -31.301165 -1.273066 7.172200 29.560806 11.494623 2.667159 -37.907862 0.000000 0.000000 0.000000 -18.615673 -11.021638 -6.927689 -47.242409 -6.207101 -2.466908 -5.877081 -35.295503 -0.342303 0.000000 0.000000 0.000000 31.770397 -11.212039 4.907727 51.147637 20.106686 -2.520897 2.022499 33.889836 4.463327 0.000000 0.000000 0.000000 
-1.352229 0.946707 0.615629 3.184063 49.254337 -1.682975 -5.275144 -2.138277 -14.381625 -7.212179 -2.845856 25.741013 0.345990 8.709644 10.407870 0.000000 0.000000 0.000000 2.830846 0.553637 -4.909895 -17.185258 -4.335642 51.732126 6.766541 32.155050 -21.312265 0.000000 0.000000 0.000000 1.133129 -2.218077 18.073194 -4.826516 1.668590 -29.809762 -0.436728 7.389263 29.050583 10.295555 3.496960 -37.665015 0.000000 0.000000 0.000000 -19.180102 -12.524517 -7.205390 -46.922328 -4.890450 -2.530327 -4.379359 -33.512969 -0.810366 0.000000 0.000000 0.000000 33.094483 -10.655509 6.662197 50.846018 22.833853 -1.972460 0.307323 31.927564 3.537527 0.000000 0.000000 0.000000 
-1.405888 0.944192 0.579726 4.362405 49.225760 -0.671109 -6.063665 -3.103006 -17.500587 -4.471029 -2.202675 20.515821 -2.333685 10.569687 19.064427 0.000000 0.000000 0.000000 3.338216 -0.039507 0.957549 -18.559232 -3.161572 49.738885 17.509875 28.981547 14.052786 0.000000 0.000000 0.000000 0.081637 -1.846798 17.140410 -5.041141 1.705562 -29.708754 0.025489 9.418022 30.260569 11.079647 3.494135 -37.631765 0.000000 0.000000 0.000000 -18.797073 -12.625372 -7.756865 -47.407462 -3.555718 -3.097203 -4.120070 -32.255101 -0.997083 0.000000 0.000000 0.000000 34.418023 -11.483787 7.543557 50.241626 26.500792 -1.223535 -0.355604 29.727895 3.022930 0.000000 0.000000 0.000000 
-1.459676 0.940491 0.542483 4.446186 49.762019 0.146137 -5.911737 -4.020505 -20.458450 -3.801943 -1.640490 16.970698 -1.764201 12.527382 21.176644 0.000000 0.000000 0.000000 5.020154 -0.759628 5.227512 -17.417529 -1.956675 42.688603 20.249632 28.013672 23.109791 0.000000 0.000000 0.000000 -0.124889 -1.810131 17.032076 -6.183911 1.942762 -28.792106 0.687372 9.437530 28.646197 11.570261 3.228953 -37.601007 0.000000 0.000000 0.000000 -19.500442 -12.602305 -8.140482 -46.940250 -1.139685 -3.730845 -4.657409 -32.458545 -0.778281 0.000000 0.000000 0.000000 32.995986 -9.918713 8.255855 51.066776 26.938761 -0.295211 -0.876709 29.051049 2.646418 0.000000 0.000000 0.000000 
-1.513216 0.933878 0.504333 4.432613 50.775129 1.020531 -5.651434 -4.928651 -23.132968 -3.643731 -1.131815 13.557153 -1.287078 13.566565 21.805850 0.000000 0.000000 0.000000 5.884513 -1.580599 8.549345 -15.652581 -1.211851 36.358205 21.599995 29.519815 24.259311 0.000000 0.000000 0.000000 0.323888 -1.852381 16.812276 -6.833004 2.078215 -28.238159 0.167091 10.572052 27.240666 12.580684 2.849027 -36.843096 0.000000 0.000000 0.000000 -19.473102 -13.094008 -8.208858 -46.198669 0.999982 -4.344510 -5.758352 -32.247866 -0.474143 0.000000 0.000000 0.000000 34.033371 -11.015139 8.025760 50.528435 28.026119 -0.002672 -1.311256 28.762984 2.505749 0.000000 0.000000 0.000000 
-1.565418 0.928105 0.465631 3.382680 51.116423 0.328111 -4.519067 -5.825981 -26.068849 -3.692350 -1.032816 12.932935 -1.783653 12.888990 21.327456 0.000000 0.000000 0.000000 7.199303 -2.172500 10.313442 -14.272859 -0.283454 30.254060 21.828343 31.275454 22.193546 0.000000 0.000000 0.000000 1.348945 -2.306239 18.035770 -7.828731 1.808853 -30.096449 1.219438 10.104932 28.175588 11.666281 3.231679 -36.152328 0.000000 0.000000 0.000000 -20.467882 -9.130515 -10.572752 -45.262510 1.125767 -4.281587 -9.313763 -30.421539 0.623454 0.000000 0.000000 0.000000 32.149603 -10.950528 7.264490 50.895396 28.003814 0.540964 0.628691 27.969762 2.782096 0.000000 0.000000 0.000000 
-1.615849 0.924839 0.426402 3.135417 51.620858 0.357414 -2.591685 -6.414961 -28.573962 -6.115667 -0.925383 13.511161 -2.096882 11.702150 19.695443 0.000000 0.000000 0.000000 8.571900 -2.042272 9.477478 -12.751883 -0.168479 27.180788 18.928555 30.821783 16.264878 0.000000 0.000000 0.000000 2.216716 -2.333926 17.475448 -7.211918 2.340473 -26.952386 -0.738927 11.364082 25.824520 12.594421 3.019214 -37.396355 0.000000 0.000000 0.000000 -19.254482 -10.271435 -9.600111 -46.479247 0.602062 -4.313950 -8.744120 -30.419879 0.289549 0.000000 0.000000 0.000000 33.187848 -11.146497 7.695069 49.784510 28.260200 0.368914 -1.454779 30.667358 2.831023 0.000000 0.000000 0.000000 
-1.664322 0.925183 0.387511 3.875960 52.582526 0.608554 -2.734328 -7.007241 -29.776074 -7.754152 -1.585060 19.138012 -1.446326 9.307642 14.064158 0.000000 0.000000 0.000000 9.337911 -2.097820 9.419848 -11.774241 0.078671 23.966073 13.894408 27.484607 7.530726 0.000000 0.000000 0.000000 1.766382 -2.403538 17.995501 -7.937044 2.044562 -28.799037 0.998279 11.381424 27.702581 11.673155 3.702224 -38.410596 0.000000 0.000000 0.000000 -19.823962 -11.027128 -10.024211 -46.583259 1.234213 -4.449627 -8.482538 -30.903096 0.177655 0.000000 0.000000 0.000000 33.032846 -11.185074 8.052676 48.225676 29.281751 0.257801 -1.932727 29.221004 2.394152 0.000000 0.000000 0.000000 
-1.710858 0.929361 0.348601 3.968064 53.024639 0.905497 -1.200625 -7.767780 -32.319820 -12.291163 -2.612733 28.802351 1.819653 13.067072 12.800726 0.000000 0.000000 0.000000 9.023305 -1.403996 7.197495 -10.255990 -0.064609 22.090144 11.508474 25.159085 1.269205 0.000000 0.000000 0.000000 1.763136 -2.628016 18.858947 -8.529751 2.043377 -29.004420 1.569077 11.483946 27.818004 11.424121 3.862566 -38.671483 0.000000 0.000000 0.000000 -20.652977 -10.356758 -10.914652 -46.830036 0.857864 -4.216171 -9.005359 -31.019170 0.353289 0.000000 0.000000 0.000000 32.268635 -10.352458 8.459244 48.289583 29.562196 0.622466 -2.510111 28.881402 2.144063 0.000000 0.000000 0.000000 
-1.753818 0.936718 0.311851 4.783049 54.093121 1.836058 -0.013016 -8.104854 -33.587680 -17.808343 -3.300293 38.117198 4.225430 17.281512 15.332632 0.000000 0.000000 0.000000 8.561317 -0.692226 4.586118 -8.114292 -0.368254 19.881166 8.858204 19.596024 -0.641293 0.000000 0.000000 0.000000 1.660886 -2.738316 19.219020 -8.770140 1.807953 -30.014282 1.752359 11.446511 28.795363 11.421165 4.037737 -39.361037 0.000000 0.000000 0.000000 -20.854917 -10.555603 -11.271508 -46.684540 1.332416 -4.310832 -8.627844 -31.060668 0.231703 0.000000 0.000000 0.000000 31.782717 -10.540907 8.443456 48.586797 29.341344 0.613472 -3.143070 29.407221 2.119632 0.000000 0.000000 0.000000 
